<svg xmlns="http://www.w3.org/2000/svg" viewBox="0 0 1084.48 786.2"><defs><style>.cls-1{fill:#4d2c3d;}.cls-2{fill:#ab9353;}.cls-3{fill:#155765;}</style></defs><title>board_5</title><g id="Layer_2" data-name="Layer 2"><g id="colors"><polygon class="cls-1" points="329.32 0 247.35 0 288.34 316.78 329.32 0"/><polygon class="cls-1" points="165.38 0 83.41 0 124.4 316.78 165.38 0"/><polygon class="cls-1" points="493.26 0 411.29 0 452.28 316.78 493.26 0"/><polygon class="cls-1" points="756.61 0 674.63 0 715.62 316.78 756.61 0"/><polygon class="cls-1" points="1084.48 0 1002.51 0 1043.5 316.78 1084.48 0"/><polygon class="cls-1" points="920.54 0 838.58 0 879.56 316.78 920.54 0"/><polygon class="cls-1" points="755.16 786.2 837.13 786.2 796.14 469.42 755.16 786.2"/><polygon class="cls-1" points="919.1 786.2 1001.07 786.2 960.09 469.42 919.1 786.2"/><polygon class="cls-1" points="591.22 786.2 673.19 786.2 632.21 469.42 591.22 786.2"/><polygon class="cls-1" points="163.94 786.2 245.91 786.2 204.93 469.42 163.94 786.2"/><polygon class="cls-1" points="327.88 786.2 409.85 786.2 368.86 469.42 327.88 786.2"/><polygon class="cls-1" points="0 786.2 81.97 786.2 40.98 469.42 0 786.2"/><polygon class="cls-2" points="411.29 0 329.32 0 370.31 316.78 411.29 0"/><polygon class="cls-2" points="247.35 0 165.38 0 206.37 316.78 247.35 0"/><polygon class="cls-2" points="83.41 0 1.45 0 42.43 316.78 83.41 0"/><polygon class="cls-2" points="1002.51 0 920.54 0 961.53 316.78 1002.51 0"/><polygon class="cls-2" points="838.58 0 756.61 0 797.59 316.78 838.58 0"/><polygon class="cls-2" points="674.63 0 592.66 0 633.65 316.78 674.63 0"/><polygon class="cls-2" points="673.19 786.2 755.16 786.2 714.18 469.42 673.19 786.2"/><polygon class="cls-2" points="837.13 786.2 919.1 786.2 878.12 469.42 837.13 786.2"/><polygon class="cls-2" points="1001.07 786.2 1083.04 786.2 1042.06 469.42 1001.07 786.2"/><polygon class="cls-2" points="81.97 786.2 163.94 786.2 122.95 469.42 81.97 786.2"/><polygon class="cls-2" points="245.91 786.2 327.88 786.2 286.89 469.42 245.91 786.2"/><polygon class="cls-2" points="409.85 786.2 491.82 786.2 450.83 469.42 409.85 786.2"/><polygon class="cls-3" points="536.79 414.05 525.37 393.1 536.79 372.15 548.21 393.1 536.79 414.05"/></g></g></svg>