
<svg xmlns="http://www.w3.org/2000/svg" viewBox="0 0 1192.29 853.24">
	<defs>
	<style>.cls-1{fill:#ab9353;stroke-width:5.93px;}.cls-1,.cls-5{stroke:#eae3ea;}.cls-1,.cls-3,.cls-5{stroke-miterlimit:10;}.cls-2{fill:#155765;}.cls-3,.cls-5{fill:none;}.cls-3{stroke:#155765;stroke-width:7px;}.cls-4{fill:#eae3ea;}.cls-5{stroke-width:6.9px;}
</style>
</defs>
<title>full
</title>
<g id="Layer_2" data-name="Layer 2">
	<g id="colors">
<rect class="cls-1" x="1124.97" y="17.19" width="64.36" height="64.36" rx="32.18" ry="32.18"/>
<rect class="cls-1" x="1124.97" y="37.78" width="64.36" height="64.36" rx="32.18" ry="32.18"/>
<rect class="cls-1" x="1124.97" y="58.37" width="64.36" height="64.36" rx="32.18" ry="32.18"/>
<rect class="cls-1" x="1124.97" y="78.96" width="64.36" height="64.36" rx="32.18" ry="32.18"/>
<rect class="cls-1" x="1124.97" y="99.55" width="64.36" height="64.36" rx="32.18" ry="32.18"/>
<rect class="cls-1" x="1124.97" y="120.14" width="64.36" height="64.36" rx="32.18" ry="32.18"/>
<rect class="cls-1" x="1124.97" y="140.73" width="64.36" height="64.36" rx="32.18" ry="32.18"/>
<rect class="cls-1" x="1124.97" y="161.32" width="64.36" height="64.36" rx="32.18" ry="32.18"/>
<rect class="cls-1" x="1124.97" y="181.91" width="64.36" height="64.36" rx="32.18" ry="32.18"/>
<rect class="cls-1" x="1124.97" y="202.5" width="64.36" height="64.36" rx="32.18" ry="32.18"/>
<circle class="cls-2" cx="1111.94" cy="456.78" r="21.66"/>
<line class="cls-3" x1="1111.94" x2="1111.94" y2="853.24"/>
<circle class="cls-2" cx="1111.94" cy="406.78" r="21.66"/>
<polygon class="cls-4" points="1117.29 415.48 1102.09 406.79 1117.29 398.09 1117.29 415.48"/>
<polyline class="cls-5" points="1101.05 456.08 1108.28 464.3 1123.71 449.51"/>
<rect class="cls-1" x="1124.97" y="223.09" width="64.36" height="64.36" rx="32.18" ry="32.18"/>
<rect class="cls-1" x="1124.97" y="243.68" width="64.36" height="64.36" rx="32.18" ry="32.18"/>
<rect class="cls-1" x="1124.97" y="264.27" width="64.36" height="64.36" rx="32.18" ry="32.18"/>
<rect class="cls-1" x="1124.97" y="284.86" width="64.36" height="64.36" rx="32.18" ry="32.18"/>
<rect class="cls-1" x="1124.97" y="305.45" width="64.36" height="64.36" rx="32.18" ry="32.18"/>
<rect class="cls-1" x="1124.97" y="784.43" width="64.36" height="64.36" rx="32.18" ry="32.18" transform="translate(2314.29 1633.23) rotate(180)"/>
<rect class="cls-1" x="1124.97" y="763.84" width="64.36" height="64.36" rx="32.18" ry="32.18" transform="translate(2314.29 1592.05) rotate(-180)"/>
<rect class="cls-1" x="1124.97" y="743.25" width="64.36" height="64.36" rx="32.18" ry="32.18" transform="translate(2314.29 1550.87) rotate(-180)"/>
<rect class="cls-1" x="1124.97" y="722.66" width="64.36" height="64.36" rx="32.18" ry="32.18" transform="translate(2314.29 1509.69) rotate(-180)"/>
<rect class="cls-1" x="1124.97" y="702.07" width="64.36" height="64.36" rx="32.18" ry="32.18" transform="translate(2314.29 1468.51) rotate(180)"/>
<rect class="cls-1" x="1124.97" y="681.48" width="64.36" height="64.36" rx="32.18" ry="32.18" transform="translate(2314.29 1427.33) rotate(180)"/>
<rect class="cls-1" x="1124.97" y="660.89" width="64.36" height="64.36" rx="32.18" ry="32.18" transform="translate(2314.29 1386.15) rotate(180)"/>
<rect class="cls-1" x="1124.97" y="640.3" width="64.36" height="64.36" rx="32.18" ry="32.18" transform="translate(2314.29 1344.97) rotate(-180)"/>
<rect class="cls-1" x="1124.97" y="619.71" width="64.36" height="64.36" rx="32.18" ry="32.18" transform="translate(2314.29 1303.79) rotate(180)"/>
<rect class="cls-1" x="1124.97" y="599.12" width="64.36" height="64.36" rx="32.18" ry="32.18" transform="translate(2314.29 1262.61) rotate(-180)"/>
<rect class="cls-1" x="1124.97" y="578.53" width="64.36" height="64.36" rx="32.18" ry="32.18" transform="translate(2314.29 1221.43) rotate(-180)"/>
<rect class="cls-1" x="1124.97" y="557.94" width="64.36" height="64.36" rx="32.18" ry="32.18" transform="translate(2314.29 1180.25) rotate(-180)"/>
<rect class="cls-1" x="1124.97" y="537.35" width="64.36" height="64.36" rx="32.18" ry="32.18" transform="translate(2314.29 1139.07) rotate(-180)"/>
<rect class="cls-1" x="1124.97" y="516.76" width="64.36" height="64.36" rx="32.18" ry="32.18" transform="translate(2314.29 1097.89) rotate(-180)"/>
<rect class="cls-1" x="1124.97" y="496.17" width="64.36" height="64.36" rx="32.18" ry="32.18" transform="translate(2314.29 1056.71) rotate(180)"/>

<!-- point24 -->

<polygon class="cls-2" points="1001.07 820.87 1083.04 820.87 1042.06 504.1 1001.07 820.87"/>
<rect class="cls-1" x="1011.32" y="760.23" width="64.36" height="64.36" rx="32.18" ry="32.18" transform="translate(2087 1584.81) rotate(-180)"/>
<rect class="cls-1" x="1011.32" y="704.47" width="64.36" height="64.36" rx="32.18" ry="32.18" transform="translate(2087 1473.3) rotate(180)"/>
<rect class="cls-1" x="1011.32" y="648.71" width="64.36" height="64.36" rx="32.18" ry="32.18" transform="translate(2087 1361.78) rotate(-180)"/>
<rect class="cls-1" x="1011.32" y="592.96" width="64.36" height="64.36" rx="32.18" ry="32.18" transform="translate(2087 1250.27) rotate(-180)"/>
<rect class="cls-1" x="1011.32" y="537.2" width="64.36" height="64.36" rx="32.18" ry="32.18" transform="translate(2087 1138.76) rotate(-180)"/>
<rect class="cls-1" x="1011.32" y="481.45" width="64.36" height="64.36" rx="32.18" ry="32.18" transform="translate(2087 1027.25) rotate(-180)"/>

<!-- point23 -->

<polygon class="cls-2" points="919.1 820.87 1001.07 820.87 960.09 504.1 919.1 820.87"/>
<rect class="cls-1" x="929.35" y="760.23" width="64.36" height="64.36" rx="32.18" ry="32.18" transform="translate(1923.06 1584.81) rotate(180)"/>
<rect class="cls-1" x="929.35" y="704.47" width="64.36" height="64.36" rx="32.18" ry="32.18" transform="translate(1923.06 1473.3) rotate(-180)"/>
<rect class="cls-1" x="929.35" y="648.71" width="64.36" height="64.36" rx="32.18" ry="32.18" transform="translate(1923.06 1361.78) rotate(-180)"/>
<rect class="cls-1" x="929.35" y="592.96" width="64.36" height="64.36" rx="32.18" ry="32.18" transform="translate(1923.06 1250.27) rotate(-180)"/>
<rect class="cls-1" x="929.35" y="537.2" width="64.36" height="64.36" rx="32.18" ry="32.18" transform="translate(1923.06 1138.76) rotate(-180)"/>
<rect class="cls-1" x="929.35" y="481.45" width="64.36" height="64.36" rx="32.18" ry="32.18" transform="translate(1923.06 1027.25) rotate(180)"/>



<!-- point22 -->

<polygon class="cls-2" points="837.13 820.87 919.1 820.87 878.12 504.1 837.13 820.87"/>
<rect class="cls-1" x="847.38" y="760.23" width="64.36" height="64.36" rx="32.18" ry="32.18" transform="translate(1759.12 1584.81) rotate(180)"/>
<rect class="cls-1" x="847.38" y="704.47" width="64.36" height="64.36" rx="32.18" ry="32.18" transform="translate(1759.12 1473.3) rotate(180)"/>
<rect class="cls-1" x="847.38" y="648.71" width="64.36" height="64.36" rx="32.18" ry="32.18" transform="translate(1759.12 1361.78) rotate(-180)"/>
<rect class="cls-1" x="847.38" y="592.96" width="64.36" height="64.36" rx="32.18" ry="32.18" transform="translate(1759.12 1250.27) rotate(-180)"/>
<rect class="cls-1" x="847.38" y="537.2" width="64.36" height="64.36" rx="32.18" ry="32.18" transform="translate(1759.12 1138.76) rotate(-180)"/>
<rect class="cls-1" x="847.38" y="481.45" width="64.36" height="64.36" rx="32.18" ry="32.18" transform="
	translate(1759.12 1027.25) rotate(-180)"/>

<!-- point21 -->

<polygon class="cls-2" points="755.16 820.87 837.13 820.87 796.14 504.1 755.16 820.87"/>
<rect class="cls-1" x="765.41" y="760.23" width="64.36" height="64.36" rx="32.18" ry="32.18" transform="translate(1595.18 1584.81) rotate(180)"/>
<rect class="cls-1" x="765.41" y="704.47" width="64.36" height="64.36" rx="32.18" ry="32.18" transform="translate(1595.18 1473.3) rotate(-180)"/>
<rect class="cls-1" x="765.41" y="648.71" width="64.36" height="64.36" rx="32.18" ry="32.18" transform="translate(1595.18 1361.78) rotate(-180)"/>
<rect class="cls-1" x="765.41" y="592.96" width="64.36" height="64.36" rx="32.18" ry="32.18" transform="translate(1595.18 1250.27) rotate(-180)"/>
<rect class="cls-1" x="765.41" y="537.2" width="64.36" height="64.36" rx="32.18" ry="32.18" transform="translate(1595.18 1138.76) rotate(-180)"/>
<rect class="cls-1" x="765.41" y="481.45" width="64.36" height="64.36" rx="32.18" ry="32.18" transform="
	translate(1595.18 1027.25) rotate(-180)"/>

<!-- point 20 -->

<polygon class="cls-2" points="673.19 820.87 755.16 820.87 714.18 504.1 673.19 820.87"/>
<rect class="cls-1" x="683.44" y="760.23" width="64.36" height="64.36" rx="32.18" ry="32.18" transform="translate(1431.24 1584.81) rotate(-180)"/>
<rect class="cls-1" x="683.44" y="704.47" width="64.36" height="64.36" rx="32.18" ry="32.18" transform="translate(1431.24 1473.3) rotate(180)"/>
<rect class="cls-1" x="683.44" y="648.71" width="64.36" height="64.36" rx="32.18" ry="32.18" transform="translate(1431.24 1361.78) rotate(-180)"/>
<rect class="cls-1" x="683.44" y="592.96" width="64.36" height="64.36" rx="32.18" ry="32.18" transform="translate(1431.24 1250.27) rotate(-180)"/>
<rect class="cls-1" x="683.44" y="537.2" width="64.36" height="64.36" rx="32.18" ry="32.18" transform="translate(1431.24 1138.76) rotate(-180)"/>
<rect class="cls-1" x="683.44" y="481.45" width="64.36" height="64.36" rx="32.18" ry="32.18" transform="
	translate(1431.24 1027.25) rotate(-180)"/>

<!-- point 19 -->

<polygon class="cls-2" points="591.22 820.87 673.19 820.87 632.21 504.1 591.22 820.87"/>
<rect class="cls-1" x="601.47" y="760.23" width="64.36" height="64.36" rx="32.18" ry="32.18" transform="translate(1267.3 1584.81) rotate(180)"/>
<rect class="cls-1" x="601.47" y="704.47" width="64.36" height="64.36" rx="32.18" ry="32.18" transform="translate(1267.3 1473.3) rotate(180)"/>
<rect class="cls-1" x="601.47" y="648.71" width="64.36" height="64.36" rx="32.18" ry="32.18" transform="translate(1267.3 1361.78) rotate(-180)"/>
<rect class="cls-1" x="601.47" y="592.96" width="64.36" height="64.36" rx="32.18" ry="32.18" transform="translate(1267.3 1250.27) rotate(-180)"/>
<rect class="cls-1" x="601.47" y="537.2" width="64.36" height="64.36" rx="32.18" ry="32.18" transform="translate(1267.3 1138.76) rotate(-180)"/>
<rect class="cls-1" x="601.47" y="481.45" width="64.36" height="64.36" rx="32.18" ry="32.18" transform="translate(1267.3 1027.25) rotate(180)"/>

<!-- point18 -->

<polygon class="cls-2" points="409.85 820.87 491.82 820.87 450.83 504.1 409.85 820.87"/>
<rect class="cls-1" x="420.1" y="760.23" width="64.36" height="64.36" rx="32.18" ry="32.18" transform="translate(904.56 1584.81) rotate(180)"/>
<rect class="cls-1" x="420.1" y="704.47" width="64.36" height="64.36" rx="32.18" ry="32.18" transform="translate(904.56 1473.3) rotate(-180)"/>
<rect class="cls-1" x="420.1" y="648.71" width="64.36" height="64.36" rx="32.18" ry="32.18" transform="translate(904.56 1361.78) rotate(-180)"/>
<rect class="cls-1" x="420.1" y="592.96" width="64.36" height="64.36" rx="32.18" ry="32.18" transform="translate(904.56 1250.27) rotate(-180)"/>
<rect class="cls-1" x="420.1" y="537.2" width="64.36" height="64.36" rx="32.18" ry="32.18" transform="translate(904.56 1138.76) rotate(-180)"/>
<rect class="cls-1" x="420.1" y="481.45" width="64.36" height="64.36" rx="32.18" ry="32.18" transform="translate(904.56 1027.25) rotate(-180)"/>

<!-- point17 -->

<polygon class="cls-2" points="327.88 820.87 409.85 820.87 368.86 504.1 327.88 820.87"/>
<rect class="cls-1" x="338.13" y="760.23" width="64.36" height="64.36" rx="32.18" ry="32.18" transform="translate(740.62 1584.81) rotate(180)"/>
<rect class="cls-1" x="338.13" y="704.47" width="64.36" height="64.36" rx="32.18" ry="32.18" transform="translate(740.62 1473.3) rotate(-180)"/>
<rect class="cls-1" x="338.13" y="648.71" width="64.36" height="64.36" rx="32.18" ry="32.18" transform="translate(740.62 1361.78) rotate(-180)"/>
<rect class="cls-1" x="338.13" y="592.96" width="64.36" height="64.36" rx="32.18" ry="32.18" transform="translate(740.62 1250.27) rotate(-180)"/>
<rect class="cls-1" x="338.13" y="537.2" width="64.36" height="64.36" rx="32.18" ry="32.18" transform="translate(740.62 1138.76) rotate(-180)"/>
<rect class="cls-1" x="338.13" y="481.45" width="64.36" height="64.36" rx="32.18" ry="32.18" transform="translate(740.62 1027.25) rotate(-180)"/>

<!-- point16 -->

<polygon class="cls-2" points="245.91 820.87 327.88 820.87 286.89 504.1 245.91 820.87"/>
<rect class="cls-1" x="256.16" y="760.23" width="64.36" height="64.36" rx="32.18" ry="32.18" transform="translate(576.68 1584.81) rotate(-180)"/>
<rect class="cls-1" x="256.16" y="704.47" width="64.36" height="64.36" rx="32.18" ry="32.18" transform="translate(576.68 1473.3) rotate(-180)"/>
<rect class="cls-1" x="256.16" y="648.71" width="64.36" height="64.36" rx="32.18" ry="32.18" transform="translate(576.68 1361.78) rotate(-180)"/>
<rect class="cls-1" x="256.16" y="592.96" width="64.36" height="64.36" rx="32.18" ry="32.18" transform="translate(576.68 1250.27) rotate(-180)"/>
<rect class="cls-1" x="256.16" y="537.2" width="64.36" height="64.36" rx="32.18" ry="32.18" transform="translate(576.68 1138.76) rotate(-180)"/>
<rect class="cls-1" x="256.16" y="481.45" width="64.36" height="64.36" rx="32.18" ry="32.18" transform="translate(576.68 1027.25) rotate(-180)"/>

<!-- point15 -->

<polygon class="cls-2" points="163.94 820.87 245.91 820.87 204.93 504.1 163.94 820.87"/>
<rect class="cls-1" x="174.19" y="760.23" width="64.36" height="64.36" rx="32.18" ry="32.18" transform="translate(412.74 1584.81) rotate(180)"/>
<rect class="cls-1" x="174.19" y="704.47" width="64.36" height="64.36" rx="32.18" ry="32.18" transform="translate(412.74 1473.3) rotate(-180)"/>
<rect class="cls-1" x="174.19" y="648.71" width="64.36" height="64.36" rx="32.18" ry="32.18" transform="translate(412.74 1361.78) rotate(-180)"/>
<rect class="cls-1" x="174.19" y="592.96" width="64.36" height="64.36" rx="32.18" ry="32.18" transform="translate(412.74 1250.27) rotate(-180)"/>
<rect class="cls-1" x="174.19" y="537.2" width="64.36" height="64.36" rx="32.18" ry="32.18" transform="translate(412.74 1138.76) rotate(-180)"/>
<rect class="cls-1" x="174.19" y="481.45" width="64.36" height="64.36" rx="32.18" ry="32.18" transform="translate(412.74 1027.25) rotate(-180)"/>

<!-- point14 -->

<polygon class="cls-2" points="81.97 820.87 163.94 820.87 122.95 504.1 81.97 820.87"/>
<rect class="cls-1" x="92.22" y="760.23" width="64.36" height="64.36" rx="32.18" ry="32.18" transform="translate(248.8 1584.81) rotate(180)"/>
<rect class="cls-1" x="92.22" y="704.47" width="64.36" height="64.36" rx="32.18" ry="32.18" transform="translate(248.8 1473.3) rotate(-180)"/>
<rect class="cls-1" x="92.22" y="648.71" width="64.36" height="64.36" rx="32.18" ry="32.18" transform="translate(248.8 1361.78) rotate(-180)"/>
<rect class="cls-1" x="92.22" y="592.96" width="64.36" height="64.36" rx="32.18" ry="32.18" transform="translate(248.8 1250.27) rotate(-180)"/>
<rect class="cls-1" x="92.22" y="537.2" width="64.36" height="64.36" rx="32.18" ry="32.18" transform="translate(248.8 1138.76) rotate(-180)"/>
<rect class="cls-1" x="92.22" y="481.45" width="64.36" height="64.36" rx="32.18" ry="32.18" transform="translate(248.8 1027.25) rotate(-180)"/>

<!-- point13 -->

<polygon class="cls-2" points="0 820.87 81.97 820.87 40.98 504.1 0 820.87"/>
<rect class="cls-1" x="10.25" y="760.23" width="64.36" height="64.36" rx="32.18" ry="32.18" transform="translate(84.86 1584.81) rotate(180)"/>
<rect class="cls-1" x="10.25" y="704.47" width="64.36" height="64.36" rx="32.18" ry="32.18" transform="translate(84.86 1473.3) rotate(-180)"/>
<rect class="cls-1" x="10.25" y="648.71" width="64.36" height="64.36" rx="32.18" ry="32.18" transform="translate(84.86 1361.78) rotate(-180)"/>
<rect class="cls-1" x="10.25" y="592.96" width="64.36" height="64.36" rx="32.18" ry="32.18" transform="translate(84.86 1250.27) rotate(-180)"/>
<rect class="cls-1" x="10.25" y="537.2" width="64.36" height="64.36" rx="32.18" ry="32.18" transform="translate(84.86 1138.76) rotate(-180)"/>
<rect class="cls-1" x="10.25" y="481.45" width="64.36" height="64.36" rx="32.18" ry="32.18" transform="translate(84.86 1027.25) rotate(-180)"/>

<!-- point12 -->

<polygon class="cls-2" points="83.41 34.68 1.45 34.68 42.43 351.45 83.41 34.68"/>
<rect class="cls-1" x="10.25" y="32.06" width="64.36" height="64.36" rx="32.18" ry="32.18"/>
<rect class="cls-1" x="10.25" y="87.82" width="64.36" height="64.36" rx="32.18" ry="32.18"/>
<rect class="cls-1" x="10.25" y="143.57" width="64.36" height="64.36" rx="32.18" ry="32.18"/>
<rect class="cls-1" x="10.25" y="199.33" width="64.36" height="64.36" rx="32.18" ry="32.18"/>
<rect class="cls-1" x="10.25" y="255.08" width="64.36" height="64.36" rx="32.18" ry="32.18"/>
<rect class="cls-1" x="10.25" y="310.84" width="64.36" height="64.36" rx="32.18" ry="32.18"/>

<!-- point11 -->

<polygon class="cls-2" points="165.38 34.68 83.41 34.68 124.4 351.45 165.38 34.68"/>
<rect class="cls-1" x="92.22" y="32.06" width="64.36" height="64.36" rx="32.18" ry="32.18"/>
<rect class="cls-1" x="92.22" y="87.82" width="64.36" height="64.36" rx="32.18" ry="32.18"/>
<rect class="cls-1" x="92.22" y="143.57" width="64.36" height="64.36" rx="32.18" ry="32.18"/>
<rect class="cls-1" x="92.22" y="199.33" width="64.36" height="64.36" rx="32.18" ry="32.18"/>
<rect class="cls-1" x="92.22" y="255.08" width="64.36" height="64.36" rx="32.18" ry="32.18"/>
<rect class="cls-1" x="92.22" y="310.84" width="64.36" height="64.36" rx="32.18" ry="32.18"/>

<!-- point10 -->

<polygon class="cls-2" points="247.35 34.68 165.38 34.68 206.37 351.45 247.35 34.68"/>
<rect class="cls-1" x="174.19" y="32.06" width="64.36" height="64.36" rx="32.18" ry="32.18"/>
<rect class="cls-1" x="174.19" y="87.82" width="64.36" height="64.36" rx="32.18" ry="32.18"/>
<rect class="cls-1" x="174.19" y="143.57" width="64.36" height="64.36" rx="32.18" ry="32.18"/>
<rect class="cls-1" x="174.19" y="199.33" width="64.36" height="64.36" rx="32.18" ry="32.18"/>
<rect class="cls-1" x="174.19" y="255.08" width="64.36" height="64.36" rx="32.18" ry="32.18"/>
<rect class="cls-1" x="174.19" y="310.84" width="64.36" height="64.36" rx="32.18" ry="32.18"/>

<!-- point9 -->

<polygon class="cls-2" points="329.32 34.68 247.35 34.68 288.34 351.45 329.32 34.68"/>
<rect class="cls-1" x="256.16" y="32.06" width="64.36" height="64.36" rx="32.18" ry="32.18"/>
<rect class="cls-1" x="256.16" y="87.82" width="64.36" height="64.36" rx="32.18" ry="32.18"/>
<rect class="cls-1" x="256.16" y="143.57" width="64.36" height="64.36" rx="32.18" ry="32.18"/>
<rect class="cls-1" x="256.16" y="199.33" width="64.36" height="64.36" rx="32.18" ry="32.18"/>
<rect class="cls-1" x="256.16" y="255.08" width="64.36" height="64.36" rx="32.18" ry="32.18"/>
<rect class="cls-1" x="256.16" y="310.84" width="64.36" height="64.36" rx="32.18" ry="32.18"/>

<!-- point8 -->

<polygon class="cls-2" points="411.29 34.68 329.32 34.68 370.31 351.45 411.29 34.68"/>
<rect class="cls-1" x="338.13" y="32.06" width="64.36" height="64.36" rx="32.18" ry="32.18"/>
<rect class="cls-1" x="338.13" y="87.82" width="64.36" height="64.36" rx="32.18" ry="32.18"/>
<rect class="cls-1" x="338.13" y="143.57" width="64.36" height="64.36" rx="32.18" ry="32.18"/>
<rect class="cls-1" x="338.13" y="199.33" width="64.36" height="64.36" rx="32.18" ry="32.18"/>
<rect class="cls-1" x="338.13" y="255.08" width="64.36" height="64.36" rx="32.18" ry="32.18"/>
<rect class="cls-1" x="338.13" y="310.84" width="64.36" height="64.36" rx="32.18" ry="32.18"/>

<!-- point7 -->

<polygon class="cls-2" points="493.26 34.68 411.29 34.68 452.28 351.45 493.26 34.68"/>
<rect class="cls-1" x="420.1" y="32.06" width="64.36" height="64.36" rx="32.18" ry="32.18"/>
<rect class="cls-1" x="420.1" y="87.82" width="64.36" height="64.36" rx="32.18" ry="32.18"/>
<rect class="cls-1" x="420.1" y="143.57" width="64.36" height="64.36" rx="32.18" ry="32.18"/>
<rect class="cls-1" x="420.1" y="199.33" width="64.36" height="64.36" rx="32.18" ry="32.18"/>
<rect class="cls-1" x="420.1" y="255.08" width="64.36" height="64.36" rx="32.18" ry="32.18"/>
<rect class="cls-1" x="420.1" y="310.84" width="64.36" height="64.36" rx="32.18" ry="32.18"/>

<!-- point6 -->

<polygon class="cls-2" points="674.63 34.68 592.66 34.68 633.65 351.45 674.63 34.68"/>
<rect class="cls-1" x="601.47" y="32.06" width="64.36" height="64.36" rx="32.18" ry="32.18"/>
<rect class="cls-1" x="601.47" y="87.82" width="64.36" height="64.36" rx="32.18" ry="32.18"/>
<rect class="cls-1" x="601.47" y="143.57" width="64.36" height="64.36" rx="32.18" ry="32.18"/>
<rect class="cls-1" x="601.47" y="199.33" width="64.36" height="64.36" rx="32.18" ry="32.18"/>
<rect class="cls-1" x="601.47" y="255.08" width="64.36" height="64.36" rx="32.18" ry="32.18"/>
<rect class="cls-1" x="601.47" y="310.84" width="64.36" height="64.36" rx="32.18" ry="32.18"/>

<!-- point5 -->

<polygon class="cls-2" points="756.61 34.68 674.63 34.68 715.62 351.45 756.61 34.68"/>
<rect class="cls-1" x="683.44" y="32.06" width="64.36" height="64.36" rx="32.18" ry="32.18"/>
<rect class="cls-1" x="683.44" y="87.82" width="64.36" height="64.36" rx="32.18" ry="32.18"/>
<rect class="cls-1" x="683.44" y="143.57" width="64.36" height="64.36" rx="32.18" ry="32.18"/>
<rect class="cls-1" x="683.44" y="199.33" width="64.36" height="64.36" rx="32.18" ry="32.18"/>
<rect class="cls-1" x="683.44" y="255.08" width="64.36" height="64.36" rx="32.18" ry="32.18"/>
<rect class="cls-1" x="683.44" y="310.84" width="64.36" height="64.36" rx="32.18" ry="32.18"/>

<!-- point4 -->

<polygon class="cls-2" points="838.58 34.68 756.61 34.68 797.59 351.45 838.58 34.68"/>
<rect class="cls-1" x="765.41" y="32.06" width="64.36" height="64.36" rx="32.18" ry="32.18"/>
<rect class="cls-1" x="765.41" y="87.82" width="64.36" height="64.36" rx="32.18" ry="32.18"/>
<rect class="cls-1" x="765.41" y="143.57" width="64.36" height="64.36" rx="32.18" ry="32.18"/>
<rect class="cls-1" x="765.41" y="199.33" width="64.36" height="64.36" rx="32.18" ry="32.18"/>
<rect class="cls-1" x="765.41" y="255.08" width="64.36" height="64.36" rx="32.18" ry="32.18"/>
<rect class="cls-1" x="765.41" y="310.84" width="64.36" height="64.36" rx="32.18" ry="32.18"/>

<!-- point3 -->

<polygon class="cls-2" points="920.54 34.68 838.58 34.68 879.56 351.45 920.54 34.68"/>
<rect class="cls-1" x="847.38" y="32.06" width="64.36" height="64.36" rx="32.18" ry="32.18"/>
<rect class="cls-1" x="847.38" y="87.82" width="64.36" height="64.36" rx="32.18" ry="32.18"/>
<rect class="cls-1" x="847.38" y="143.57" width="64.36" height="64.36" rx="32.18" ry="32.18"/>
<rect class="cls-1" x="847.38" y="199.33" width="64.36" height="64.36" rx="32.18" ry="32.18"/>
<rect class="cls-1" x="847.38" y="255.08" width="64.36" height="64.36" rx="32.18" ry="32.18"/>
<rect class="cls-1" x="847.38" y="310.84" width="64.36" height="64.36" rx="32.18" ry="32.18"/>

<!-- point2 -->

<polygon class="cls-2" points="1002.51 34.68 920.54 34.68 961.53 351.45 1002.51 34.68"/>
<rect class="cls-1" x="929.35" y="32.06" width="64.36" height="64.36" rx="32.18" ry="32.18"/>
<rect class="cls-1" x="929.35" y="87.82" width="64.36" height="64.36" rx="32.18" ry="32.18"/>
<rect class="cls-1" x="929.35" y="143.57" width="64.36" height="64.36" rx="32.18" ry="32.18"/>
<rect class="cls-1" x="929.35" y="199.33" width="64.36" height="64.36" rx="32.18" ry="32.18"/>
<rect class="cls-1" x="929.35" y="255.08" width="64.36" height="64.36" rx="32.18" ry="32.18"/>
<rect class="cls-1" x="929.35" y="310.84" width="64.36" height="64.36" rx="32.18" ry="32.18"/>

<!-- point1 -->

<polygon class="cls-2" points="1084.48 34.68 1002.51 34.68 1043.5 351.45 1084.48 34.68"/>
<rect class="cls-1" x="1011.32" y="32.06" width="64.36" height="64.36" rx="32.18" ry="32.18"/>
<rect class="cls-1" x="1011.32" y="87.82" width="64.36" height="64.36" rx="32.18" ry="32.18"/>
<rect class="cls-1" x="1011.32" y="143.57" width="64.36" height="64.36" rx="32.18" ry="32.18"/>
<rect class="cls-1" x="1011.32" y="199.33" width="64.36" height="64.36" rx="32.18" ry="32.18"/>
<rect class="cls-1" x="1011.32" y="255.08" width="64.36" height="64.36" rx="32.18" ry="32.18"/>
<rect class="cls-1" x="1011.32" y="310.84" width="64.36" height="64.36" rx="32.18" ry="32.18"/>

<!-- bar -->

<polygon class="cls-2" points="536.79 448.72 525.37 427.77 536.79 406.82 548.21 427.77 536.79 448.72"/>
<rect class="cls-1" x="504.61" y="340.51" width="64.36" height="64.36" rx="32.18" ry="32.18"/>
<rect class="cls-1" x="504.61" y="368.39" width="64.36" height="64.36" rx="32.18" ry="32.18"/>
<rect class="cls-1" x="504.61" y="396.27" width="64.36" height="64.36" rx="32.18" ry="32.18"/>
<rect class="cls-1" x="504.61" y="424.14" width="64.36" height="64.36" rx="32.18" ry="32.18"/>
<rect class="cls-1" x="504.61" y="452.02" width="64.36" height="64.36" rx="32.18" ry="32.18"/>

</g>
</g>
</svg>